# xmcd
#
# Track frame offsets: 
#        150
#        11422
#        23587
#        34500
#        45375
#        57375
#        68625
#        79425
#        91500
#        103125
#        115500
#        129787
#        141942
#        153112
#        164250
#        176820
#        188965
#        201132
#        213225
#        224362
#
# Disc length: 3153 seconds
#
# Revision: 2
# Processed by: cddbd v1.4PL0 Copyright (c) Steve Scherf et al.
# Submitted via: ExactAudioCopy v0.90b4
#
DISCID=020c4f14
DTITLE=George Jones - She Thinks I Still Care (The George Jones Collec
DTITLE=tion) - Disc 1
DYEAR=1900
DGENRE=Country
TTITLE0=Running Bear
TTITLE1=Root Beer
TTITLE2=I Could Never Be Ashamed Of You
TTITLE3=The Precious Jewel
TTITLE4=Peace In The Valley
TTITLE5=You Win Again
TTITLE6=Lonesome Whistle
TTITLE7=Faded Love
TTITLE8=She Thinks I Still Care
TTITLE9=Sometimes You Just Can't Win
TTITLE10=Open Pit Mine
TTITLE11=A Girl I Used To Know
TTITLE12=Big Fool Of The Year
TTITLE13=Not What I Had In Mind
TTITLE14=I Saw Me
TTITLE15=We Must Have Been Out Of Our Minds (With Melba Montgomery)
TTITLE16=You Comb Her Hair
TTITLE17=She's My Mother
TTITLE18=Blue Moon Of Kentucky (With Melba Montgomery)
TTITLE19=What's In Our Hearts
EXTD=Razor and Tie, 1997
EXTT0=
EXTT1=
EXTT2=
EXTT3=
EXTT4=
EXTT5=
EXTT6=
EXTT7=
EXTT8=
EXTT9=
EXTT10=
EXTT11=
EXTT12=
EXTT13=
EXTT14=
EXTT15=
EXTT16=
EXTT17=
EXTT18=
EXTT19=
PLAYORDER=
